<svg height="512pt" viewBox="0 0 512.00078 512" width="512pt" xmlns="http://www.w3.org/2000/svg"><path d="m300.949219 511.519531h-89.96875v-217.078125h89.96875zm0 0" fill="#82a0d2"/><path d="m255.957031 294.441406h44.992188v217.078125h-44.992188zm0 0" fill="#5877a6"/><path d="m256.003906 309.4375-55.3125-32.511719-.816406-7.480469c-2.5625-23.417968-3.863281-48.339843-3.863281-74.070312 0-49.367188 4.835937-95.953125 13.621093-131.175781 4.484376-17.964844 9.84375-32.3125 15.9375-42.644531 8.433594-14.300782 18.671876-21.554688 30.429688-21.554688s21.996094 7.253906 30.433594 21.554688c6.089844 10.328124 11.453125 24.679687 15.933594 42.644531 8.785156 35.222656 13.625 81.808593 13.625 131.175781 0 25.738281-1.300782 50.65625-3.863282 74.066406l-.816406 7.480469zm41.214844-41.628906h.011719zm0 0" fill="#c9dff7"/><path d="m286.433594 21.554688c-8.4375-14.300782-18.675782-21.554688-30.433594-21.554688-.011719 0-.027344.00390625-.042969.00390625v309.41015575l.046875.023438 55.304688-32.515625.820312-7.480469c2.5625-23.410156 3.859375-48.328125 3.859375-74.066406 0-49.367188-4.835937-95.953125-13.621093-131.175781-4.480469-17.96875-9.84375-32.316407-15.933594-42.644531zm0 0" fill="#9ebbdb"/><path d="m473.675781 452.894531c-11.867187 0-26.710937-2.53125-44.140625-7.527343-34.894531-10-77.660156-29.105469-120.414062-53.789063-22.199219-12.816406-43.054688-26.34375-61.992188-40.214844l-6.132812-4.496093.011718-63.40625 55.222657-32.472657 7.027343 3.097657c21.492188 9.464843 43.648438 20.765624 65.851563 33.585937 42.757813 24.683594 80.679687 52.167969 106.792969 77.386719 13.316406 12.867187 23.0625 24.683594 28.960937 35.125 8.171875 14.453125 9.332031 26.945312 3.453125 37.128906s-17.277344 15.425781-33.882812 15.578125c-.25.003906-.503906.003906-.757813.003906zm0 0" fill="#9ebbdb"/><path d="m241.007812 283.660156-.011718 63.207032 6.132812 4.496093c18.9375 13.867188 39.792969 27.398438 61.992188 40.214844 42.753906 24.683594 85.519531 43.785156 120.414062 53.789063 17.429688 4.996093 32.273438 7.527343 44.140625 7.527343.253907 0 .507813-.003906.757813-.003906 16.324218-.152344 27.605468-5.230469 33.570312-15.082031zm0 0" fill="#82a0d2"/><path d="m38.328125 452.894531c-.257813 0-.507813 0-.761719-.003906-16.601562-.152344-28.003906-5.394531-33.882812-15.578125s-4.71875-22.675781 3.453125-37.132812c5.898437-10.4375 15.640625-22.257813 28.964843-35.121094 26.109376-25.21875 64.035157-52.703125 106.789063-77.386719 22.15625-12.792969 44.273437-24.078125 65.726563-33.535156l7.121093-3.15625 55.261719 32.480469-.003906 63.414062-6.136719 4.492188c-18.933594 13.871093-39.785156 27.398437-61.980469 40.210937-42.753906 24.683594-85.515625 43.785156-120.410156 53.789063-17.429688 4.996093-32.273438 7.527343-44.140625 7.527343zm-8.285156-29.546875h.007812zm120.347656-122.6875h.007813zm0 0" fill="#c9dff7"/><path d="m3.6875 437.3125c5.878906 10.183594 17.277344 15.425781 33.882812 15.578125.25 0 .503907.003906.757813.003906 11.867187 0 26.710937-2.53125 44.140625-7.527343 34.894531-10.003907 77.660156-29.105469 120.414062-53.789063 22.191407-12.8125 43.046876-26.339844 61.980469-40.210937l6.132813-4.492188.007812-63.414062-.539062-.316407-266.835938 154.058594c.019532.035156.035156.074219.058594.109375zm0 0" fill="#9ebbdb"/><path d="m303.808594 291.746094c0 26.425781-21.425782 47.847656-47.851563 47.847656s-47.847656-21.421875-47.847656-47.847656c0-26.429688 21.421875-47.851563 47.847656-47.851563s47.851563 21.421875 47.851563 47.851563zm0 0" fill="#9ebbdb"/><path d="m255.957031 354.589844c-34.652343 0-62.84375-28.191406-62.84375-62.84375 0-34.65625 28.191407-62.847656 62.84375-62.847656 34.652344 0 62.847657 28.191406 62.847657 62.847656 0 34.652344-28.195313 62.84375-62.847657 62.84375zm0 0" fill="#dfeefa"/><g fill="#c9dff7"><path d="m318.804688 291.746094c0-34.65625-28.191407-62.847656-62.847657-62.847656v125.691406c34.652344 0 62.847657-28.191406 62.847657-62.84375zm0 0"/><path d="m435.195312 290.855469c-7.691406 0-14.242187-5.886719-14.925781-13.695313-.265625-3.066406-.539062-5.589844-.859375-7.9375-5.714844-41.90625-27.140625-79.640625-60.324218-106.253906-2.695313-2.160156-5.523438-4.285156-8.410157-6.3125-6.777343-4.761719-8.410156-14.117188-3.648437-20.894531 4.761718-6.777344 14.117187-8.410157 20.894531-3.648438 3.402344 2.390625 6.742187 4.902344 9.933594 7.457031 39.203125 31.441407 64.515625 76.046876 71.273437 125.597657.382813 2.800781.71875 5.871093 1.023438 9.382812.722656 8.25-5.382813 15.523438-13.632813 16.246094-.445312.039063-.886719.058594-1.324219.058594zm0 0"/><path d="m76.703125 290.921875c-.4375 0-.875-.015625-1.316406-.054687-8.253907-.71875-14.359375-7.992188-13.640625-16.246094 5-57.390625 35.015625-109.355469 82.347656-142.570313 6.777344-4.753906 16.132812-3.117187 20.890625 3.664063s3.117187 16.132812-3.660156 20.890625c-40.066407 28.113281-65.46875 72.078125-69.695313 120.621093-.683594 7.808594-7.230468 13.695313-14.925781 13.695313zm0 0"/></g></svg>